<svg version="1" xmlns="http://www.w3.org/2000/svg" width="346.667" height="346.667" viewBox="0 0 260.000000 260.000000"><path d="M19 1.7C12.7 4 3.9 13 1.7 19.4.1 23.9 0 33.8 0 130c0 120.9-.7 111.5 8.9 121.1 8.9 8.9 9 8.9 52.5 8.9 36.7-.1 37-.1 32-1.8-16.4-5.7-27.9-19.9-30.5-37.5-1.1-7.3-1-8.1.8-10.5 1.5-2 3-2.8 6.1-3 5.1-.4 6.7 1.7 7.7 10 .8 7.1 5.5 16.7 10.1 20.7 7 6.2 11 7.6 21.4 7.6 8.7 0 10-.3 14.9-3 5.4-3 10.5-8.4 13.4-14.1 3.2-6.2 3.7-15.7 3.7-68.6v-52.7l2.6-2c1.5-1.2 3.4-2.1 4.4-2.1 1 0 2.9.9 4.4 2.1l2.6 2v57.8c0 49.9-.2 58.5-1.6 63.2-4 13.6-14.8 25-28.4 29.9l-5.5 1.9 22.8.1c20.8 0 22.7-.1 21.3-1.6-2.5-2.5-2.8-5.4-2.1-20.6.4-7.9.9-40.4 1.1-72.3.2-31.9.4-58.3.4-58.6 0-.4 1.3-1.2 3-1.9 4.3-1.8 48.6-.8 55.5 1.2 17.3 5.1 30.1 18.4 33.6 34.9.6 2.9.9 9.4.7 14.5-.4 7.6-1.1 10.4-3.6 15.8-4.1 8.7-12.5 17.5-20.2 21.3-3.3 1.5-6 3.1-6 3.4 0 .9 27.9 46 29.5 47.7 1 1.1 1.5.5 2.9-3.4 1.4-4.3 1.6-15.5 1.6-110.4 0-120.9.7-111.5-8.9-121.1-9.7-9.6-.2-8.9-121.5-8.8C35.4.1 23 .3 19 1.7z"/><path d="M176 151.5v32.6l20.8-.3c18.7-.3 21.1-.6 25.5-2.5 6.7-3.1 14.1-10.4 16.8-16.6 2.9-6.6 3.1-17 .6-24.4-2.4-6.9-9.3-14.5-16.5-18-5.6-2.8-6.1-2.8-26.4-3.1l-20.8-.3v32.6zM176 227.7c0 25.2-.2 28.9-1.7 30.5-1.6 1.7-.6 1.8 29.9 1.8 26.3 0 32.2-.3 36.2-1.6 3.5-1.2 4.6-2 4.1-3.2-.3-.8-8.2-13.8-17.6-28.9l-17-27.3H176v28.7z"/></svg>